<?xml version="1.0" standalone="no"?>
<!DOCTYPE svg PUBLIC "-//W3C//DTD SVG 20010904//EN"
 "http://www.w3.org/TR/2001/REC-SVG-20010904/DTD/svg10.dtd">
<svg version="1.0" xmlns="http://www.w3.org/2000/svg"
 width="400.000000pt" height="400.000000pt" viewBox="0 0 400.000000 400.000000"
 preserveAspectRatio="xMidYMid meet">
<metadata>
Created by potrace 1.14, written by Peter Selinger 2001-2017
</metadata>
<g transform="translate(0.000000,400.000000) scale(0.100000,-0.100000)"
fill="#000000" stroke="none">
<path d="M727 3744 c-3 -3 -16 -7 -29 -8 -65 -8 -108 -19 -103 -26 3 -5 -4 -7
-15 -5 -11 2 -20 0 -20 -5 0 -5 -7 -6 -17 -3 -10 4 -14 2 -10 -4 4 -7 -5 -14
-23 -18 -17 -4 -28 -11 -24 -16 3 -5 -2 -9 -11 -9 -36 0 -191 -187 -171 -207
3 -3 -1 -11 -9 -17 -14 -10 -20 -32 -30 -101 -1 -11 -6 -29 -11 -40 -5 -14 -9
-1847 -4 -2572 0 -13 4 -23 9 -23 5 0 7 -9 4 -20 -3 -12 0 -20 6 -20 7 0 9 -4
6 -10 -8 -13 15 -90 27 -90 5 0 7 -4 3 -9 -3 -5 -1 -12 5 -16 6 -4 8 -11 5
-16 -4 -5 -1 -9 5 -9 6 0 16 -13 21 -30 6 -16 15 -27 20 -24 5 3 9 1 9 -4 0
-6 20 -30 45 -55 25 -26 45 -44 45 -41 0 3 12 -3 27 -14 29 -19 60 -35 78 -37
6 -1 25 -9 44 -17 19 -9 45 -15 58 -13 13 1 23 -2 23 -7 0 -5 8 -8 18 -7 9 1
19 0 22 -1 18 -7 2557 -3 2552 4 -3 5 2 7 11 3 9 -3 19 -2 22 3 3 4 16 7 30 5
14 -1 25 2 25 7 0 6 7 8 15 4 8 -3 15 -1 15 4 0 6 11 10 25 10 14 0 25 5 25
11 0 5 4 8 9 5 5 -4 11 -2 13 3 1 5 10 11 18 13 8 2 23 12 33 22 9 10 17 15
17 11 0 -5 20 12 45 37 24 25 48 43 52 39 4 -3 5 -2 1 3 -4 5 7 28 23 52 19
25 28 47 24 55 -5 8 -4 10 3 5 8 -5 12 0 12 13 0 12 4 21 9 21 6 0 8 9 6 20
-2 11 0 20 6 20 5 0 9 16 9 36 0 19 3 33 8 30 11 -6 9 2516 -2 2533 -6 10 -6
12 2 7 8 -4 10 7 9 38 -1 24 -5 42 -9 39 -5 -2 -8 12 -8 31 0 20 -4 36 -9 36
-4 0 -8 8 -8 18 0 26 -14 62 -24 62 -5 0 -6 7 -3 15 4 8 1 15 -5 15 -6 0 -11
7 -11 15 0 8 -5 15 -12 15 -6 0 -8 3 -5 7 4 3 -4 15 -16 27 -12 12 -25 26 -27
31 -3 6 -8 9 -11 8 -3 -1 -12 9 -19 22 -7 14 -19 25 -27 25 -7 0 -13 5 -13 10
0 6 -7 10 -15 10 -8 0 -15 5 -15 10 0 6 -7 10 -15 10 -8 0 -15 5 -15 10 0 6
-3 9 -7 8 -5 -1 -18 3 -30 10 -13 7 -23 10 -23 6 0 -3 -6 -1 -13 5 -8 6 -17 8
-20 4 -4 -3 -7 -2 -7 3 0 10 -25 16 -77 17 -18 0 -33 3 -33 7 0 3 -567 6
-1259 6 -878 0 -1258 -3 -1253 -10 3 -6 -1 -5 -10 1 -8 7 -17 10 -21 7z"/>
</g>
</svg>
